<svg width="100" height="34" viewBox="0 0 100 34" fill="none" xmlns="http://www.w3.org/2000/svg">
<g clip-path="url(#clip0_102_2)">
<path d="M46.5507 22.806C45.08 22.806 43.926 22.312 43.0887 21.3247C42.2513 20.3267 41.8327 18.8827 41.8327 16.9933C41.8327 16.0487 41.94 15.2167 42.1547 14.4973C42.3693 13.778 42.6807 13.1713 43.0887 12.678C43.4967 12.184 43.9907 11.814 44.57 11.5667C45.1607 11.3093 45.8207 11.18 46.5507 11.18C47.5273 11.18 48.3433 11.3947 48.998 11.824C49.6633 12.2533 50.184 12.8867 50.56 13.724L49.0307 14.5613C48.8373 14.0247 48.5367 13.6007 48.1287 13.2893C47.7313 12.9673 47.2053 12.806 46.5507 12.806C45.6813 12.806 44.9993 13.1013 44.506 13.6913C44.012 14.282 43.7653 15.0973 43.7653 16.1387V17.8453C43.7653 18.8867 44.012 19.7027 44.506 20.2927C45 20.8833 45.6813 21.178 46.5507 21.178C47.2267 21.178 47.7747 21.006 48.1927 20.6627C48.622 20.3087 48.9387 19.8573 49.1427 19.31L50.608 20.1953C50.232 21.0113 49.706 21.65 49.03 22.1113C48.354 22.5727 47.5273 22.804 46.5507 22.804V22.806Z" fill="white"/>
<path d="M56.8367 11.374V18.298C56.8367 19.2533 57.0193 19.9727 57.384 20.4553C57.7493 20.9387 58.3713 21.18 59.252 21.18C60.1327 21.18 60.7547 20.9387 61.12 20.4553C61.4853 19.972 61.6673 19.2533 61.6673 18.298V11.374H63.4547V18.008C63.4547 18.8347 63.3793 19.5487 63.2293 20.1493C63.0793 20.7507 62.8373 21.2493 62.5047 21.6467C62.172 22.0333 61.7373 22.3227 61.2007 22.516C60.6747 22.7093 60.0253 22.806 59.252 22.806C58.4787 22.806 57.8247 22.7093 57.2873 22.516C56.7613 22.3227 56.332 22.0327 55.9993 21.6467C55.6667 21.2493 55.4253 20.75 55.2747 20.1493C55.1247 19.548 55.0493 18.8347 55.0493 18.008V11.374H56.8367Z" fill="white"/>
<path d="M68.728 11.374H73.7033C74.6373 11.374 75.3673 11.6367 75.8933 12.1627C76.43 12.6887 76.6987 13.392 76.6987 14.272C76.6987 14.6907 76.6393 15.05 76.5213 15.3507C76.4033 15.6407 76.2533 15.882 76.0707 16.0753C75.888 16.258 75.6787 16.3973 75.4427 16.494C75.2067 16.58 74.976 16.6333 74.75 16.6553V16.752C74.9753 16.7627 75.2227 16.8167 75.4907 16.9133C75.77 17.01 76.0273 17.1653 76.2633 17.38C76.4993 17.584 76.698 17.8527 76.8593 18.1853C77.0207 18.5073 77.1007 18.9047 77.1007 19.3767C77.1007 19.8487 77.0253 20.2513 76.8753 20.6487C76.736 21.046 76.5373 21.3893 76.2793 21.6793C76.022 21.9693 75.716 22.2 75.3613 22.372C75.0073 22.5327 74.6207 22.6133 74.202 22.6133H68.7273V11.374H68.728ZM70.5473 21.0513H73.6713C74.144 21.0513 74.514 20.928 74.7827 20.6813C75.0507 20.4347 75.1853 20.08 75.1853 19.6187V19.0713C75.1853 18.61 75.0513 18.2553 74.7827 18.0087C74.514 17.762 74.144 17.6387 73.6713 17.6387H70.5473V21.052V21.0513ZM70.5473 16.124H73.3653C73.816 16.124 74.1653 16.0113 74.412 15.786C74.6587 15.55 74.7827 15.2173 74.7827 14.788V14.2727C74.7827 13.8433 74.6593 13.516 74.412 13.2907C74.1653 13.0547 73.816 12.9367 73.3653 12.9367H70.5473V16.1247V16.124Z" fill="white"/>
<path d="M81.9187 22.6127V11.3733H89.116V12.9833H83.738V16.1073H88.6167V17.7173H83.738V21.002H89.116V22.612H81.9187V22.6127Z" fill="white"/>
<path d="M13.376 10.3313L21.778 5.54C21.986 5.424 22.24 5.424 22.448 5.54L30.71 10.0347C31.1727 10.294 31.1787 10.958 30.7207 11.226L22.2993 16.0033C22.0853 16.128 21.8207 16.128 21.6067 16.0033L13.364 11.522C12.9053 11.254 12.912 10.5887 13.376 10.33V10.3313Z" fill="#31C4FF"/>
<path d="M24.1833 27.1593L31.4653 22.8087C31.55 22.7587 31.692 22.5513 31.8267 22.3153C32.054 21.916 32.1727 21.4633 32.1747 21.0033L32.2067 13.732C32.248 13.1807 31.6533 12.8087 31.176 13.088L23.9793 17.114C23.7687 17.2373 23.3647 17.7373 23.3647 17.9813L23.1493 26.568C23.1493 27.0987 23.726 27.4287 24.1833 27.1593Z" fill="#3DE9E9"/>
<path d="M13.3 22.8173C12.7 22.5193 12.3387 21.9587 12.358 21.3533L12.284 13.4347C12.3 12.9187 12.8587 12.6047 13.308 12.8593L15.9073 14.318C16.134 14.446 16.268 14.6913 16.2547 14.9513L16.1787 18.9433C16.148 19.7247 16.3333 20.2667 16.728 20.738C16.938 20.9887 17.196 21.1953 17.4787 21.36L21.232 23.5467C21.4433 23.6693 21.5727 23.8953 21.5727 24.1393V26.5593C21.5727 27.084 21.0087 27.4147 20.5507 27.158L13.2993 22.8173H13.3Z" fill="#2EB5BD"/>
</g>
<defs>
<clipPath id="clip0_102_2">
<rect width="100" height="33.0113" fill="white"/>
</clipPath>
</defs>
</svg>
